<svg xmlns="http://www.w3.org/2000/svg" width="23" height="31.234" viewBox="0 0 23 31.234"><g transform="translate(-153.946 -1690.082)"><path d="M160.143,1693.932h-5.292a.464.464,0,0,0-.463.44l-.441,8.834a3,3,0,0,0,2.2,2.944v13.821a1.347,1.347,0,0,0,1.345,1.344h0a1.347,1.347,0,0,0,1.344-1.345v-13.82a3,3,0,0,0,2.207-2.959l-.444-8.819A.463.463,0,0,0,160.143,1693.932Zm-1.824,11.38a.465.465,0,0,0-.4.46v14.2a.418.418,0,0,1-.418.418h0a.419.419,0,0,1-.419-.418v-14.2a.464.464,0,0,0-.4-.46,2.067,2.067,0,0,1-1.8-2.075l.419-8.378h.86v6.151a.463.463,0,1,0,.926,0v-6.151h.837v6.151a.464.464,0,0,0,.927,0v-6.151h.86l.421,8.363A2.071,2.071,0,0,1,158.319,1705.312Z" fill="#19c600"/><path d="M170.309,1703.356l-.047,0v6.011h-1.741a1.744,1.744,0,0,1-1.742-1.741v-5.291a6.633,6.633,0,0,1-.926-.7v6a2.669,2.669,0,0,0,2.646,2.665v9.683a1.344,1.344,0,0,0,1.344,1.344h0a1.345,1.345,0,0,0,1.344-1.346v-16.679A6.7,6.7,0,0,1,170.309,1703.356Zm-.047,16.615a.418.418,0,0,1-.418.419h0a.418.418,0,0,1-.418-.42v-9.678h.837Z" fill="#19c600"/><path d="M170.309,1690.082a6.637,6.637,0,1,0,6.637,6.637A6.636,6.636,0,0,0,170.309,1690.082Zm2.826,5.185-3.34,3.34a.309.309,0,0,1-.436,0l-1.877-1.877a.309.309,0,0,1,.437-.436l1.658,1.658,3.122-3.121a.308.308,0,0,1,.436.436Z" fill="#19c600"/></g></svg>