<svg xmlns="http://www.w3.org/2000/svg" width="48.051" height="48.051" viewBox="0 0 48.051 48.051">
  <g id="Member" transform="translate(-27.248 -29)">
    <g id="Ellipse" transform="translate(27.248 29)" fill="none" stroke="#fff" stroke-width="1">
      <circle cx="24.026" cy="24.026" r="24.026" stroke="none"/>
      <circle cx="24.026" cy="24.026" r="23.526" fill="none"/>
    </g>
    <path id="Person_icon" data-name="Person icon" d="M288.77,635.351a4.775,4.775,0,1,0-4.652,0A8.007,8.007,0,0,0,278.453,643a.478.478,0,0,0,.956,0,7.031,7.031,0,1,1,14.063,0,.478.478,0,0,0,.956,0A8,8,0,0,0,288.77,635.351Zm-6.144-4.158a3.815,3.815,0,1,1,3.82,3.81A3.825,3.825,0,0,1,282.625,631.193Z" transform="translate(-235.157 -581.967)" fill="#fff"/>
  </g>
</svg>
