<svg xmlns="http://www.w3.org/2000/svg" width="27.919" height="44.343" viewBox="0 0 27.919 44.343"><g transform="translate(-263.975 -1392.295)"><path d="M291.894,1393.045a.75.75,0,0,0-.75-.75,7.9,7.9,0,0,0-7.889,7.889v14.281a4.323,4.323,0,0,0,4.283,4.316v15.678a2.177,2.177,0,1,0,4.354,0v-16.411l0-.01Zm-7.139,21.42v-14.281a6.4,6.4,0,0,1,5.639-6.345v23.446h-2.819A2.824,2.824,0,0,1,284.755,1414.465Zm4.96,20.671h0a.678.678,0,0,1-.676-.68v-15.671h1.354v15.672A.679.679,0,0,1,289.715,1435.136Z" fill="#fff"/><path d="M274.009,1392.3H265.44a.75.75,0,0,0-.749.712l-.715,14.3a4.853,4.853,0,0,0,3.571,4.767v22.379a2.182,2.182,0,0,0,2.179,2.177v0a2.182,2.182,0,0,0,2.176-2.178v-22.377a4.86,4.86,0,0,0,3.574-4.792l-.718-14.28A.752.752,0,0,0,274.009,1392.3Zm-2.954,18.423a.751.751,0,0,0-.654.744v22.99a.677.677,0,1,1-1.354,0v-22.99a.751.751,0,0,0-.653-.744,3.347,3.347,0,0,1-2.918-3.36l.678-13.567h1.392v9.96a.75.75,0,0,0,1.5,0v-9.96H270.4v9.96a.75.75,0,0,0,1.5,0v-9.96H273.3l.68,13.543A3.353,3.353,0,0,1,271.055,1410.722Z" fill="#fff"/></g></svg>